{"title":"Frozen.2013.720p.Bluray.Arabic.مدبلج","uid":15467043,"size":783415791,"categoryP":"video","categoryS":"movies","magnet":"?xt=urn:btih:1a989451c48ecec8ffdf2ba0ef1498b2b17f122f&amp;dn=Frozen.2013.720p.Bluray.Arabic.%D9%85%D8%AF%D8%A8%D9%84%D8%AC&amp;tr=udp%3A%2F%2Ftracker.leechers-paradise.org%3A6969&amp;tr=udp%3A%2F%2Fzer0day.ch%3A1337&amp;tr=udp%3A%2F%2Fopen.demonii.com%3A1337&amp;tr=udp%3A%2F%2Ftracker.coppersurfer.tk%3A6969&amp;tr=udp%3A%2F%2Fexodus.desync.com%3A6969","seeders":1,"leechers":0,"uploader":"RioterM","files":8,"time":1470106660,"description":"Frozen 2013 Arabic 720p BluRay مدبلج\n\nالرجاء الالتزام بالسيد وعدم مسح التورنت بعد مسحه مباشرةً\n\nلطلب المحتويات العربية راسلوني على   \n\n\nTorrent Info:\n\nGeneral\n\nComplete name               : Frozen.2013.720p.Bluray.Arabic.مدبلج - CimaClub.com.mp4\nFormat                      : MPEG-4\nFormat profile              : Base Media / Version 2\nCodec ID                    : mp42 (isom/iso2/avc1/mp41)\nFile size                   : 745 MiB\nDuration                    : 1h 42mn\nOverall bit rate mode       : Variable\nOverall bit rate            : 1 019 Kbps\nMovie name                  : Frozen\nEncoded date                : UTC 2036-02-06 06:28:16\nTagged date                 : UTC 2036-02-06 06:28:16\nWriting application         : HandBrake 0.10.2 2015060900\n\nVideo\nID                          : 1\nFormat                      : AVC\nFormat/Info                 : Advanced Video Codec\nFormat profile              :   \nFormat settings, CABAC      : Yes\nFormat settings, ReFrames   : 10 frames\nCodec ID                    : avc1\nCodec ID/Info               : Advanced Video Coding\nDuration                    : 1h 42mn\nBit rate                    : 900 Kbps\nWidth                       : 1 280 pixels\nHeight                      : 570 pixels\nDisplay aspect ratio        : 2.25:1\nFrame rate mode             : Variable\nFrame rate                  : 23.976 (24000/1001) fps\nMinimum frame rate          : 23.256 fps\nMaximum frame rate          : 25.000 fps\nColor space                 : YUV\nChroma subsampling          : 4:2:0\nBit depth                   : 8 bits\nScan type                   : Progressive\nBits/(Pixel*Frame)          : 0.051\nStream size                 : 658 MiB (88%)\nWriting library             : x264 core 142 r2479 dd79a61\nEncoding settings           : cabac=1 / ref=10 / deblock=1:1:1 / analyse=0x3:0x113 / me=umh / subme=8 / psy=1 / psy_rd=0.40:0.00 / mixed_ref=1 / me_range=16 / chroma_me=1 / trellis=1 / 8x8dct=1 / cqm=0 / deadzone=21,11 / fast_pskip=1 / chroma_qp_offset=-2 / threads=6 / lookahead_threads=1 / sliced_threads=0 / nr=0 / decimate=1 / interlaced=0 / bluray_compat=0 / constrained_intra=0 / bframes=5 / b_pyramid=2 / b_adapt=2 / b_bias=0 / direct=3 / weightb=1 / open_gop=0 / weightp=2 / keyint=240 / keyint_min=24 / scenecut=40 / intra_refresh=0 / rc_lookahead=50 / rc=2pass / mbtree=1 / bitrate=900 / ratetol=1.0 / qcomp=0.60 / qpmin=0 / qpmax=69 / qpstep=4 / cplxblur=20.0 / qblur=0.5 / vbv_maxrate=62500 / vbv_bufsize=78125 / nal_hrd=none / filler=0 / ip_ratio=1.40 / aq=1:0.60\nEncoded date                : UTC 2036-02-06 06:28:16\nTagged date                 : UTC 2036-02-06 06:28:16\nColor range                 : Limited\nColor primaries             : BT.709\nTransfer characteristics    : BT.709\nMatrix coefficients         : BT.709\n\nAudio\nID                          : 2\nFormat                      : AAC\nFormat/Info                 : Advanced Audio Codec\nFormat profile              : LC\nCodec ID                    : 40\nDuration                    : 1h 42mn\nBit rate mode               : Variable\nBit rate                    : 112 Kbps\nChannel(s)                  : 2 channels\nChannel positions           : Front: L R\nSampling rate               : 48.0 KHz\nFrame rate                  : 46.875 fps (1024 spf)\nCompression mode            : Lossy\nStream size                 : 82.0 MiB (11%)\nTitle                       : Stereo / Stereo\nDefault                     : Yes\nAlternate group             : 1\nEncoded date                : UTC 2036-02-06 06:28:16\nTagged date                 : UTC 2036-02-06 06:28:16\n\nEncoder: RioterM\nSource: BluRay Disk\n\nPlease Keep Seeding!","torrent":{"xt":"urn:btih:1a989451c48ecec8ffdf2ba0ef1498b2b17f122f","amp;dn":"Frozen.2013.720p.Bluray.Arabic.%D9%85%D8%AF%D8%A8%D9%84%D8%AC","amp;tr":["udp%3A%2F%2Ftracker.leechers-paradise.org%3A6969","udp%3A%2F%2Fzer0day.ch%3A1337","udp%3A%2F%2Fopen.demonii.com%3A1337","udp%3A%2F%2Ftracker.coppersurfer.tk%3A6969","udp%3A%2F%2Fexodus.desync.com%3A6969"],"infoHash":"1a989451c48ecec8ffdf2ba0ef1498b2b17f122f","infoHashBuffer":{"type":"Buffer","data":[26,152,148,81,196,142,206,200,255,223,43,160,239,20,152,178,177,127,18,47]},"announce":[],"urlList":[]}}